<mxfile host="Electron" agent="Mozilla/5.0 (Windows NT 10.0; Win64; x64) AppleWebKit/537.36 (KHTML, like Gecko) draw.io/26.0.16 Chrome/132.0.6834.196 Electron/34.2.0 Safari/537.36" version="26.0.16">
  <diagram name="Page-1" id="jcasKLi1NR5vjkLrawAS">
    <mxGraphModel dx="3827" dy="2049" grid="1" gridSize="10" guides="1" tooltips="1" connect="1" arrows="1" fold="1" page="1" pageScale="1" pageWidth="827" pageHeight="1169" math="0" shadow="0">
      <root>
        <mxCell id="0" />
        <mxCell id="1" parent="0" />
        <mxCell id="tuiA9e9-3wJeAhOJc_Rb-78" style="edgeStyle=orthogonalEdgeStyle;rounded=0;orthogonalLoop=1;jettySize=auto;html=1;" edge="1" parent="1" source="tuiA9e9-3wJeAhOJc_Rb-76" target="tuiA9e9-3wJeAhOJc_Rb-75">
          <mxGeometry relative="1" as="geometry" />
        </mxCell>
        <mxCell id="tuiA9e9-3wJeAhOJc_Rb-76" value="" style="rounded=0;whiteSpace=wrap;html=1;" vertex="1" parent="1">
          <mxGeometry x="120" y="790" width="600" height="370" as="geometry" />
        </mxCell>
        <mxCell id="tuiA9e9-3wJeAhOJc_Rb-67" value="" style="rounded=0;whiteSpace=wrap;html=1;" vertex="1" parent="1">
          <mxGeometry x="-750" y="40" width="1560" height="730" as="geometry" />
        </mxCell>
        <mxCell id="tuiA9e9-3wJeAhOJc_Rb-77" style="edgeStyle=orthogonalEdgeStyle;rounded=0;orthogonalLoop=1;jettySize=auto;html=1;exitX=0.5;exitY=1;exitDx=0;exitDy=0;entryX=0.5;entryY=0;entryDx=0;entryDy=0;" edge="1" parent="1" source="tuiA9e9-3wJeAhOJc_Rb-75" target="tuiA9e9-3wJeAhOJc_Rb-76">
          <mxGeometry relative="1" as="geometry" />
        </mxCell>
        <mxCell id="tuiA9e9-3wJeAhOJc_Rb-75" value="" style="rounded=0;whiteSpace=wrap;html=1;fillColor=#d5e8d4;strokeColor=#82b366;gradientColor=#97d077;" vertex="1" parent="1">
          <mxGeometry x="60" y="60" width="720" height="700" as="geometry" />
        </mxCell>
        <mxCell id="tuiA9e9-3wJeAhOJc_Rb-13" style="edgeStyle=orthogonalEdgeStyle;rounded=0;orthogonalLoop=1;jettySize=auto;html=1;exitX=0.5;exitY=1;exitDx=0;exitDy=0;entryX=0.5;entryY=0;entryDx=0;entryDy=0;" edge="1" parent="1" source="tuiA9e9-3wJeAhOJc_Rb-1" target="tuiA9e9-3wJeAhOJc_Rb-12">
          <mxGeometry relative="1" as="geometry" />
        </mxCell>
        <mxCell id="tuiA9e9-3wJeAhOJc_Rb-18" style="edgeStyle=orthogonalEdgeStyle;rounded=0;orthogonalLoop=1;jettySize=auto;html=1;exitX=0.5;exitY=1;exitDx=0;exitDy=0;entryX=0.5;entryY=0;entryDx=0;entryDy=0;" edge="1" parent="1" source="tuiA9e9-3wJeAhOJc_Rb-1" target="tuiA9e9-3wJeAhOJc_Rb-17">
          <mxGeometry relative="1" as="geometry" />
        </mxCell>
        <mxCell id="tuiA9e9-3wJeAhOJc_Rb-1" value="PC meets Aeliana" style="rounded=0;whiteSpace=wrap;html=1;fillColor=#f5f5f5;fontColor=#333333;strokeColor=#666666;" vertex="1" parent="1">
          <mxGeometry x="234" y="70" width="120" height="60" as="geometry" />
        </mxCell>
        <mxCell id="tuiA9e9-3wJeAhOJc_Rb-19" style="edgeStyle=orthogonalEdgeStyle;rounded=0;orthogonalLoop=1;jettySize=auto;html=1;exitX=0.5;exitY=1;exitDx=0;exitDy=0;entryX=0.5;entryY=0;entryDx=0;entryDy=0;" edge="1" parent="1" source="tuiA9e9-3wJeAhOJc_Rb-2" target="tuiA9e9-3wJeAhOJc_Rb-15">
          <mxGeometry relative="1" as="geometry" />
        </mxCell>
        <mxCell id="tuiA9e9-3wJeAhOJc_Rb-20" style="edgeStyle=orthogonalEdgeStyle;rounded=0;orthogonalLoop=1;jettySize=auto;html=1;exitX=0.5;exitY=1;exitDx=0;exitDy=0;entryX=0.5;entryY=0;entryDx=0;entryDy=0;" edge="1" parent="1" source="tuiA9e9-3wJeAhOJc_Rb-2" target="tuiA9e9-3wJeAhOJc_Rb-16">
          <mxGeometry relative="1" as="geometry" />
        </mxCell>
        <mxCell id="tuiA9e9-3wJeAhOJc_Rb-2" value="PC meets Urtiso" style="rounded=0;whiteSpace=wrap;html=1;fillColor=#f5f5f5;fontColor=#333333;strokeColor=#666666;" vertex="1" parent="1">
          <mxGeometry x="474" y="70" width="120" height="60" as="geometry" />
        </mxCell>
        <mxCell id="tuiA9e9-3wJeAhOJc_Rb-27" style="edgeStyle=orthogonalEdgeStyle;rounded=0;orthogonalLoop=1;jettySize=auto;html=1;exitX=0.5;exitY=1;exitDx=0;exitDy=0;entryX=0.5;entryY=0;entryDx=0;entryDy=0;" edge="1" parent="1" source="tuiA9e9-3wJeAhOJc_Rb-3" target="tuiA9e9-3wJeAhOJc_Rb-24">
          <mxGeometry relative="1" as="geometry" />
        </mxCell>
        <mxCell id="tuiA9e9-3wJeAhOJc_Rb-30" style="edgeStyle=orthogonalEdgeStyle;rounded=0;orthogonalLoop=1;jettySize=auto;html=1;exitX=0.5;exitY=1;exitDx=0;exitDy=0;entryX=0.5;entryY=0;entryDx=0;entryDy=0;fillColor=#dae8fc;strokeColor=#6c8ebf;" edge="1" parent="1" source="tuiA9e9-3wJeAhOJc_Rb-3" target="tuiA9e9-3wJeAhOJc_Rb-29">
          <mxGeometry relative="1" as="geometry" />
        </mxCell>
        <mxCell id="tuiA9e9-3wJeAhOJc_Rb-3" value="PC searching" style="rounded=0;whiteSpace=wrap;html=1;" vertex="1" parent="1">
          <mxGeometry x="474" y="250" width="120" height="60" as="geometry" />
        </mxCell>
        <mxCell id="tuiA9e9-3wJeAhOJc_Rb-25" style="edgeStyle=orthogonalEdgeStyle;rounded=0;orthogonalLoop=1;jettySize=auto;html=1;exitX=0.5;exitY=1;exitDx=0;exitDy=0;entryX=0.5;entryY=0;entryDx=0;entryDy=0;" edge="1" parent="1" source="tuiA9e9-3wJeAhOJc_Rb-4" target="tuiA9e9-3wJeAhOJc_Rb-11">
          <mxGeometry relative="1" as="geometry" />
        </mxCell>
        <mxCell id="tuiA9e9-3wJeAhOJc_Rb-4" value="PC escorting back" style="rounded=0;whiteSpace=wrap;html=1;" vertex="1" parent="1">
          <mxGeometry x="234" y="250" width="120" height="60" as="geometry" />
        </mxCell>
        <mxCell id="tuiA9e9-3wJeAhOJc_Rb-5" value="PC declines" style="rounded=0;whiteSpace=wrap;html=1;" vertex="1" parent="1">
          <mxGeometry x="64" y="250" width="120" height="60" as="geometry" />
        </mxCell>
        <mxCell id="tuiA9e9-3wJeAhOJc_Rb-6" value="PC declines" style="rounded=0;whiteSpace=wrap;html=1;" vertex="1" parent="1">
          <mxGeometry x="644" y="250" width="120" height="60" as="geometry" />
        </mxCell>
        <mxCell id="tuiA9e9-3wJeAhOJc_Rb-33" style="edgeStyle=orthogonalEdgeStyle;rounded=0;orthogonalLoop=1;jettySize=auto;html=1;exitX=0.5;exitY=1;exitDx=0;exitDy=0;entryX=0.5;entryY=0;entryDx=0;entryDy=0;" edge="1" parent="1" source="tuiA9e9-3wJeAhOJc_Rb-11" target="tuiA9e9-3wJeAhOJc_Rb-32">
          <mxGeometry relative="1" as="geometry" />
        </mxCell>
        <mxCell id="tuiA9e9-3wJeAhOJc_Rb-11" value="PC gets Aeliana home" style="rounded=0;whiteSpace=wrap;html=1;" vertex="1" parent="1">
          <mxGeometry x="354" y="590" width="120" height="60" as="geometry" />
        </mxCell>
        <mxCell id="tuiA9e9-3wJeAhOJc_Rb-14" style="edgeStyle=orthogonalEdgeStyle;rounded=0;orthogonalLoop=1;jettySize=auto;html=1;exitX=0.5;exitY=1;exitDx=0;exitDy=0;entryX=0.5;entryY=0;entryDx=0;entryDy=0;" edge="1" parent="1" source="tuiA9e9-3wJeAhOJc_Rb-12" target="tuiA9e9-3wJeAhOJc_Rb-4">
          <mxGeometry relative="1" as="geometry" />
        </mxCell>
        <mxCell id="tuiA9e9-3wJeAhOJc_Rb-12" value="Accept" style="rhombus;whiteSpace=wrap;html=1;fillColor=#d5e8d4;strokeColor=#82b366;" vertex="1" parent="1">
          <mxGeometry x="264" y="170" width="60" height="60" as="geometry" />
        </mxCell>
        <mxCell id="tuiA9e9-3wJeAhOJc_Rb-22" style="edgeStyle=orthogonalEdgeStyle;rounded=0;orthogonalLoop=1;jettySize=auto;html=1;exitX=0.5;exitY=1;exitDx=0;exitDy=0;entryX=0.5;entryY=0;entryDx=0;entryDy=0;" edge="1" parent="1" source="tuiA9e9-3wJeAhOJc_Rb-15" target="tuiA9e9-3wJeAhOJc_Rb-3">
          <mxGeometry relative="1" as="geometry" />
        </mxCell>
        <mxCell id="tuiA9e9-3wJeAhOJc_Rb-15" value="Accept" style="rhombus;whiteSpace=wrap;html=1;fillColor=#d5e8d4;strokeColor=#82b366;" vertex="1" parent="1">
          <mxGeometry x="504" y="170" width="60" height="60" as="geometry" />
        </mxCell>
        <mxCell id="tuiA9e9-3wJeAhOJc_Rb-21" style="edgeStyle=orthogonalEdgeStyle;rounded=0;orthogonalLoop=1;jettySize=auto;html=1;exitX=0.5;exitY=1;exitDx=0;exitDy=0;entryX=0.5;entryY=0;entryDx=0;entryDy=0;" edge="1" parent="1" source="tuiA9e9-3wJeAhOJc_Rb-16" target="tuiA9e9-3wJeAhOJc_Rb-6">
          <mxGeometry relative="1" as="geometry" />
        </mxCell>
        <mxCell id="tuiA9e9-3wJeAhOJc_Rb-16" value="Decline" style="rhombus;whiteSpace=wrap;html=1;fillColor=#f8cecc;strokeColor=#b85450;" vertex="1" parent="1">
          <mxGeometry x="674" y="170" width="60" height="60" as="geometry" />
        </mxCell>
        <mxCell id="tuiA9e9-3wJeAhOJc_Rb-23" style="edgeStyle=orthogonalEdgeStyle;rounded=0;orthogonalLoop=1;jettySize=auto;html=1;exitX=0.5;exitY=1;exitDx=0;exitDy=0;entryX=0.5;entryY=0;entryDx=0;entryDy=0;" edge="1" parent="1" source="tuiA9e9-3wJeAhOJc_Rb-17" target="tuiA9e9-3wJeAhOJc_Rb-5">
          <mxGeometry relative="1" as="geometry" />
        </mxCell>
        <mxCell id="tuiA9e9-3wJeAhOJc_Rb-17" value="Decline" style="rhombus;whiteSpace=wrap;html=1;fillColor=#f8cecc;strokeColor=#b85450;" vertex="1" parent="1">
          <mxGeometry x="94" y="170" width="60" height="60" as="geometry" />
        </mxCell>
        <mxCell id="tuiA9e9-3wJeAhOJc_Rb-26" style="edgeStyle=orthogonalEdgeStyle;rounded=0;orthogonalLoop=1;jettySize=auto;html=1;exitX=0.5;exitY=1;exitDx=0;exitDy=0;entryX=0.5;entryY=0;entryDx=0;entryDy=0;" edge="1" parent="1" source="tuiA9e9-3wJeAhOJc_Rb-24" target="tuiA9e9-3wJeAhOJc_Rb-11">
          <mxGeometry relative="1" as="geometry" />
        </mxCell>
        <mxCell id="tuiA9e9-3wJeAhOJc_Rb-24" value="PC finds Aeliana" style="rounded=0;whiteSpace=wrap;html=1;" vertex="1" parent="1">
          <mxGeometry x="474" y="470" width="120" height="60" as="geometry" />
        </mxCell>
        <mxCell id="tuiA9e9-3wJeAhOJc_Rb-31" style="edgeStyle=orthogonalEdgeStyle;rounded=0;orthogonalLoop=1;jettySize=auto;html=1;exitX=0.5;exitY=1;exitDx=0;exitDy=0;entryX=0.5;entryY=0;entryDx=0;entryDy=0;fillColor=#dae8fc;strokeColor=#6c8ebf;" edge="1" parent="1" source="tuiA9e9-3wJeAhOJc_Rb-29" target="tuiA9e9-3wJeAhOJc_Rb-24">
          <mxGeometry relative="1" as="geometry" />
        </mxCell>
        <mxCell id="tuiA9e9-3wJeAhOJc_Rb-29" value="PC speaks to Nedalor, points them in correct direction" style="rounded=0;whiteSpace=wrap;html=1;fillColor=#dae8fc;strokeColor=#6c8ebf;" vertex="1" parent="1">
          <mxGeometry x="580" y="360" width="120" height="60" as="geometry" />
        </mxCell>
        <mxCell id="tuiA9e9-3wJeAhOJc_Rb-32" value="PC speaks to Urtiso" style="rounded=0;whiteSpace=wrap;html=1;fillColor=#f5f5f5;fontColor=#333333;strokeColor=#666666;" vertex="1" parent="1">
          <mxGeometry x="354" y="690" width="120" height="60" as="geometry" />
        </mxCell>
        <mxCell id="tuiA9e9-3wJeAhOJc_Rb-37" style="edgeStyle=orthogonalEdgeStyle;rounded=0;orthogonalLoop=1;jettySize=auto;html=1;exitX=0.5;exitY=1;exitDx=0;exitDy=0;entryX=0.5;entryY=0;entryDx=0;entryDy=0;fillColor=#dae8fc;strokeColor=#6c8ebf;" edge="1" parent="1" source="tuiA9e9-3wJeAhOJc_Rb-34" target="tuiA9e9-3wJeAhOJc_Rb-36">
          <mxGeometry relative="1" as="geometry" />
        </mxCell>
        <mxCell id="tuiA9e9-3wJeAhOJc_Rb-34" value="PC kills Urtiso" style="rounded=0;whiteSpace=wrap;html=1;fillColor=#f5f5f5;fontColor=#333333;strokeColor=#666666;" vertex="1" parent="1">
          <mxGeometry x="-120" y="70" width="120" height="60" as="geometry" />
        </mxCell>
        <mxCell id="tuiA9e9-3wJeAhOJc_Rb-60" style="edgeStyle=orthogonalEdgeStyle;rounded=0;orthogonalLoop=1;jettySize=auto;html=1;exitX=0.5;exitY=1;exitDx=0;exitDy=0;entryX=0.5;entryY=0;entryDx=0;entryDy=0;" edge="1" parent="1" source="tuiA9e9-3wJeAhOJc_Rb-35" target="tuiA9e9-3wJeAhOJc_Rb-53">
          <mxGeometry relative="1" as="geometry" />
        </mxCell>
        <mxCell id="tuiA9e9-3wJeAhOJc_Rb-35" value="PC kills Aeliana" style="rounded=0;whiteSpace=wrap;html=1;fillColor=#f5f5f5;fontColor=#333333;strokeColor=#666666;" vertex="1" parent="1">
          <mxGeometry x="-580" y="70" width="120" height="60" as="geometry" />
        </mxCell>
        <mxCell id="tuiA9e9-3wJeAhOJc_Rb-40" style="edgeStyle=orthogonalEdgeStyle;rounded=0;orthogonalLoop=1;jettySize=auto;html=1;exitX=0.5;exitY=1;exitDx=0;exitDy=0;entryX=0.5;entryY=0;entryDx=0;entryDy=0;" edge="1" parent="1" source="tuiA9e9-3wJeAhOJc_Rb-36" target="tuiA9e9-3wJeAhOJc_Rb-38">
          <mxGeometry relative="1" as="geometry" />
        </mxCell>
        <mxCell id="tuiA9e9-3wJeAhOJc_Rb-41" style="edgeStyle=orthogonalEdgeStyle;rounded=0;orthogonalLoop=1;jettySize=auto;html=1;exitX=0.5;exitY=1;exitDx=0;exitDy=0;entryX=0.5;entryY=0;entryDx=0;entryDy=0;" edge="1" parent="1" source="tuiA9e9-3wJeAhOJc_Rb-36" target="tuiA9e9-3wJeAhOJc_Rb-39">
          <mxGeometry relative="1" as="geometry" />
        </mxCell>
        <mxCell id="tuiA9e9-3wJeAhOJc_Rb-43" style="edgeStyle=orthogonalEdgeStyle;rounded=0;orthogonalLoop=1;jettySize=auto;html=1;exitX=0.5;exitY=1;exitDx=0;exitDy=0;entryX=0.5;entryY=0;entryDx=0;entryDy=0;" edge="1" parent="1" source="tuiA9e9-3wJeAhOJc_Rb-36" target="tuiA9e9-3wJeAhOJc_Rb-42">
          <mxGeometry relative="1" as="geometry" />
        </mxCell>
        <mxCell id="tuiA9e9-3wJeAhOJc_Rb-36" value="PC finds Aeliana" style="rounded=0;whiteSpace=wrap;html=1;fillColor=#dae8fc;strokeColor=#6c8ebf;" vertex="1" parent="1">
          <mxGeometry x="-120" y="170" width="120" height="60" as="geometry" />
        </mxCell>
        <mxCell id="tuiA9e9-3wJeAhOJc_Rb-45" style="edgeStyle=orthogonalEdgeStyle;rounded=0;orthogonalLoop=1;jettySize=auto;html=1;exitX=0.5;exitY=1;exitDx=0;exitDy=0;entryX=0.5;entryY=0;entryDx=0;entryDy=0;" edge="1" parent="1" source="tuiA9e9-3wJeAhOJc_Rb-38" target="tuiA9e9-3wJeAhOJc_Rb-44">
          <mxGeometry relative="1" as="geometry" />
        </mxCell>
        <mxCell id="tuiA9e9-3wJeAhOJc_Rb-38" value="Accept" style="rhombus;whiteSpace=wrap;html=1;fillColor=#d5e8d4;strokeColor=#82b366;" vertex="1" parent="1">
          <mxGeometry x="-190" y="270" width="60" height="60" as="geometry" />
        </mxCell>
        <mxCell id="tuiA9e9-3wJeAhOJc_Rb-39" value="Decline" style="rhombus;whiteSpace=wrap;html=1;fillColor=#f8cecc;strokeColor=#b85450;" vertex="1" parent="1">
          <mxGeometry x="-340" y="270" width="60" height="60" as="geometry" />
        </mxCell>
        <mxCell id="tuiA9e9-3wJeAhOJc_Rb-51" style="edgeStyle=orthogonalEdgeStyle;rounded=0;orthogonalLoop=1;jettySize=auto;html=1;exitX=0.5;exitY=1;exitDx=0;exitDy=0;entryX=0.5;entryY=0;entryDx=0;entryDy=0;" edge="1" parent="1" source="tuiA9e9-3wJeAhOJc_Rb-42" target="tuiA9e9-3wJeAhOJc_Rb-50">
          <mxGeometry relative="1" as="geometry" />
        </mxCell>
        <mxCell id="tuiA9e9-3wJeAhOJc_Rb-42" value="Inform" style="rhombus;whiteSpace=wrap;html=1;fillColor=#dae8fc;strokeColor=#6c8ebf;" vertex="1" parent="1">
          <mxGeometry x="-40" y="270" width="60" height="60" as="geometry" />
        </mxCell>
        <mxCell id="tuiA9e9-3wJeAhOJc_Rb-47" style="edgeStyle=orthogonalEdgeStyle;rounded=0;orthogonalLoop=1;jettySize=auto;html=1;exitX=0.5;exitY=1;exitDx=0;exitDy=0;entryX=0.5;entryY=0;entryDx=0;entryDy=0;" edge="1" parent="1" source="tuiA9e9-3wJeAhOJc_Rb-44" target="tuiA9e9-3wJeAhOJc_Rb-46">
          <mxGeometry relative="1" as="geometry" />
        </mxCell>
        <mxCell id="tuiA9e9-3wJeAhOJc_Rb-44" value="PC escorting back" style="rounded=0;whiteSpace=wrap;html=1;" vertex="1" parent="1">
          <mxGeometry x="-220" y="360" width="120" height="60" as="geometry" />
        </mxCell>
        <mxCell id="tuiA9e9-3wJeAhOJc_Rb-49" style="edgeStyle=orthogonalEdgeStyle;rounded=0;orthogonalLoop=1;jettySize=auto;html=1;exitX=0.5;exitY=1;exitDx=0;exitDy=0;entryX=0.5;entryY=0;entryDx=0;entryDy=0;" edge="1" parent="1" source="tuiA9e9-3wJeAhOJc_Rb-46" target="tuiA9e9-3wJeAhOJc_Rb-48">
          <mxGeometry relative="1" as="geometry" />
        </mxCell>
        <mxCell id="tuiA9e9-3wJeAhOJc_Rb-46" value="PC gets Aeliana home" style="rounded=0;whiteSpace=wrap;html=1;" vertex="1" parent="1">
          <mxGeometry x="-220" y="460" width="120" height="60" as="geometry" />
        </mxCell>
        <mxCell id="tuiA9e9-3wJeAhOJc_Rb-52" style="edgeStyle=orthogonalEdgeStyle;rounded=0;orthogonalLoop=1;jettySize=auto;html=1;exitX=0.5;exitY=1;exitDx=0;exitDy=0;entryX=0.5;entryY=0;entryDx=0;entryDy=0;" edge="1" parent="1" source="tuiA9e9-3wJeAhOJc_Rb-48" target="tuiA9e9-3wJeAhOJc_Rb-50">
          <mxGeometry relative="1" as="geometry" />
        </mxCell>
        <mxCell id="tuiA9e9-3wJeAhOJc_Rb-48" value="Aeliana finds her wife dead" style="rounded=0;whiteSpace=wrap;html=1;fillColor=#f5f5f5;fontColor=#333333;strokeColor=#666666;" vertex="1" parent="1">
          <mxGeometry x="-220" y="560" width="120" height="60" as="geometry" />
        </mxCell>
        <mxCell id="tuiA9e9-3wJeAhOJc_Rb-50" value="Global script kills Aeliana &amp;amp; Rattus after 1 day" style="rounded=0;whiteSpace=wrap;html=1;fillColor=#e1d5e7;strokeColor=#9673a6;" vertex="1" parent="1">
          <mxGeometry x="-70" y="660" width="120" height="60" as="geometry" />
        </mxCell>
        <mxCell id="tuiA9e9-3wJeAhOJc_Rb-57" style="edgeStyle=orthogonalEdgeStyle;rounded=0;orthogonalLoop=1;jettySize=auto;html=1;exitX=0.5;exitY=1;exitDx=0;exitDy=0;" edge="1" parent="1" source="tuiA9e9-3wJeAhOJc_Rb-53" target="tuiA9e9-3wJeAhOJc_Rb-54">
          <mxGeometry relative="1" as="geometry" />
        </mxCell>
        <mxCell id="tuiA9e9-3wJeAhOJc_Rb-58" style="edgeStyle=orthogonalEdgeStyle;rounded=0;orthogonalLoop=1;jettySize=auto;html=1;exitX=0.5;exitY=1;exitDx=0;exitDy=0;entryX=0.5;entryY=0;entryDx=0;entryDy=0;" edge="1" parent="1" source="tuiA9e9-3wJeAhOJc_Rb-53" target="tuiA9e9-3wJeAhOJc_Rb-55">
          <mxGeometry relative="1" as="geometry" />
        </mxCell>
        <mxCell id="tuiA9e9-3wJeAhOJc_Rb-59" style="edgeStyle=orthogonalEdgeStyle;rounded=0;orthogonalLoop=1;jettySize=auto;html=1;exitX=0.5;exitY=1;exitDx=0;exitDy=0;entryX=0.5;entryY=0;entryDx=0;entryDy=0;" edge="1" parent="1" source="tuiA9e9-3wJeAhOJc_Rb-53" target="tuiA9e9-3wJeAhOJc_Rb-56">
          <mxGeometry relative="1" as="geometry" />
        </mxCell>
        <mxCell id="tuiA9e9-3wJeAhOJc_Rb-53" value="PC meets Urtiso" style="rounded=0;whiteSpace=wrap;html=1;fillColor=#dae8fc;strokeColor=#6c8ebf;" vertex="1" parent="1">
          <mxGeometry x="-580" y="170" width="120" height="60" as="geometry" />
        </mxCell>
        <mxCell id="tuiA9e9-3wJeAhOJc_Rb-62" style="edgeStyle=orthogonalEdgeStyle;rounded=0;orthogonalLoop=1;jettySize=auto;html=1;exitX=0.5;exitY=1;exitDx=0;exitDy=0;entryX=0.5;entryY=0;entryDx=0;entryDy=0;" edge="1" parent="1" source="tuiA9e9-3wJeAhOJc_Rb-54" target="tuiA9e9-3wJeAhOJc_Rb-61">
          <mxGeometry relative="1" as="geometry" />
        </mxCell>
        <mxCell id="tuiA9e9-3wJeAhOJc_Rb-54" value="Admit" style="rhombus;whiteSpace=wrap;html=1;fillColor=#dae8fc;strokeColor=#6c8ebf;" vertex="1" parent="1">
          <mxGeometry x="-470" y="270" width="60" height="60" as="geometry" />
        </mxCell>
        <mxCell id="tuiA9e9-3wJeAhOJc_Rb-65" style="edgeStyle=orthogonalEdgeStyle;rounded=0;orthogonalLoop=1;jettySize=auto;html=1;exitX=0.5;exitY=1;exitDx=0;exitDy=0;entryX=0.5;entryY=0;entryDx=0;entryDy=0;" edge="1" parent="1" source="tuiA9e9-3wJeAhOJc_Rb-55" target="tuiA9e9-3wJeAhOJc_Rb-63">
          <mxGeometry relative="1" as="geometry" />
        </mxCell>
        <mxCell id="tuiA9e9-3wJeAhOJc_Rb-55" value="&quot;Found&quot;" style="rhombus;whiteSpace=wrap;html=1;fillColor=#dae8fc;strokeColor=#6c8ebf;" vertex="1" parent="1">
          <mxGeometry x="-600" y="270" width="60" height="60" as="geometry" />
        </mxCell>
        <mxCell id="tuiA9e9-3wJeAhOJc_Rb-56" value="Decline" style="rhombus;whiteSpace=wrap;html=1;fillColor=#f8cecc;strokeColor=#b85450;" vertex="1" parent="1">
          <mxGeometry x="-730" y="270" width="60" height="60" as="geometry" />
        </mxCell>
        <mxCell id="tuiA9e9-3wJeAhOJc_Rb-61" value="Urtiso attacks PC" style="rounded=0;whiteSpace=wrap;html=1;fillColor=#f5f5f5;fontColor=#333333;strokeColor=#666666;" vertex="1" parent="1">
          <mxGeometry x="-500" y="360" width="120" height="60" as="geometry" />
        </mxCell>
        <mxCell id="tuiA9e9-3wJeAhOJc_Rb-66" style="edgeStyle=orthogonalEdgeStyle;rounded=0;orthogonalLoop=1;jettySize=auto;html=1;exitX=0.5;exitY=1;exitDx=0;exitDy=0;entryX=0.5;entryY=0;entryDx=0;entryDy=0;" edge="1" parent="1" source="tuiA9e9-3wJeAhOJc_Rb-63" target="tuiA9e9-3wJeAhOJc_Rb-64">
          <mxGeometry relative="1" as="geometry" />
        </mxCell>
        <mxCell id="tuiA9e9-3wJeAhOJc_Rb-63" value="Urtiso &quot;lots to do&quot;" style="rounded=0;whiteSpace=wrap;html=1;fillColor=#f5f5f5;fontColor=#333333;strokeColor=#666666;" vertex="1" parent="1">
          <mxGeometry x="-630" y="360" width="120" height="60" as="geometry" />
        </mxCell>
        <mxCell id="tuiA9e9-3wJeAhOJc_Rb-64" value="Global script arms up Urtiso" style="rounded=0;whiteSpace=wrap;html=1;fillColor=#e1d5e7;strokeColor=#9673a6;" vertex="1" parent="1">
          <mxGeometry x="-630" y="460" width="120" height="60" as="geometry" />
        </mxCell>
        <mxCell id="tuiA9e9-3wJeAhOJc_Rb-71" style="edgeStyle=orthogonalEdgeStyle;rounded=0;orthogonalLoop=1;jettySize=auto;html=1;exitX=0.5;exitY=1;exitDx=0;exitDy=0;" edge="1" parent="1" source="tuiA9e9-3wJeAhOJc_Rb-68" target="tuiA9e9-3wJeAhOJc_Rb-69">
          <mxGeometry relative="1" as="geometry" />
        </mxCell>
        <mxCell id="tuiA9e9-3wJeAhOJc_Rb-72" style="edgeStyle=orthogonalEdgeStyle;rounded=0;orthogonalLoop=1;jettySize=auto;html=1;exitX=0.5;exitY=1;exitDx=0;exitDy=0;entryX=0.5;entryY=0;entryDx=0;entryDy=0;" edge="1" parent="1" source="tuiA9e9-3wJeAhOJc_Rb-68" target="tuiA9e9-3wJeAhOJc_Rb-70">
          <mxGeometry relative="1" as="geometry" />
        </mxCell>
        <mxCell id="tuiA9e9-3wJeAhOJc_Rb-68" value="PC asks about &quot;spare room&quot;" style="rounded=0;whiteSpace=wrap;html=1;" vertex="1" parent="1">
          <mxGeometry x="354" y="800" width="120" height="60" as="geometry" />
        </mxCell>
        <mxCell id="tuiA9e9-3wJeAhOJc_Rb-74" style="edgeStyle=orthogonalEdgeStyle;rounded=0;orthogonalLoop=1;jettySize=auto;html=1;exitX=0.5;exitY=1;exitDx=0;exitDy=0;entryX=0.5;entryY=0;entryDx=0;entryDy=0;" edge="1" parent="1" source="tuiA9e9-3wJeAhOJc_Rb-69" target="tuiA9e9-3wJeAhOJc_Rb-73">
          <mxGeometry relative="1" as="geometry" />
        </mxCell>
        <mxCell id="tuiA9e9-3wJeAhOJc_Rb-69" value="Accept" style="rhombus;whiteSpace=wrap;html=1;fillColor=#d5e8d4;strokeColor=#82b366;" vertex="1" parent="1">
          <mxGeometry x="384" y="900" width="60" height="60" as="geometry" />
        </mxCell>
        <mxCell id="tuiA9e9-3wJeAhOJc_Rb-70" value="Decline" style="rhombus;whiteSpace=wrap;html=1;fillColor=#f8cecc;strokeColor=#b85450;" vertex="1" parent="1">
          <mxGeometry x="264" y="900" width="60" height="60" as="geometry" />
        </mxCell>
        <mxCell id="tuiA9e9-3wJeAhOJc_Rb-81" style="edgeStyle=orthogonalEdgeStyle;rounded=0;orthogonalLoop=1;jettySize=auto;html=1;exitX=0.5;exitY=1;exitDx=0;exitDy=0;entryX=0.5;entryY=0;entryDx=0;entryDy=0;" edge="1" parent="1" source="tuiA9e9-3wJeAhOJc_Rb-73" target="tuiA9e9-3wJeAhOJc_Rb-80">
          <mxGeometry relative="1" as="geometry" />
        </mxCell>
        <mxCell id="tuiA9e9-3wJeAhOJc_Rb-73" value="PC starts renting" style="rounded=0;whiteSpace=wrap;html=1;fillColor=#f5f5f5;fontColor=#333333;strokeColor=#666666;" vertex="1" parent="1">
          <mxGeometry x="354" y="990" width="120" height="60" as="geometry" />
        </mxCell>
        <mxCell id="tuiA9e9-3wJeAhOJc_Rb-80" value="Global script starts counting rent" style="rounded=0;whiteSpace=wrap;html=1;fillColor=#e1d5e7;strokeColor=#9673a6;" vertex="1" parent="1">
          <mxGeometry x="354" y="1080" width="120" height="60" as="geometry" />
        </mxCell>
      </root>
    </mxGraphModel>
  </diagram>
</mxfile>
